{
  "accessors": [
    {
      "bufferView": 2,
      "componentType": 5126,
      "count": 15639,
      "max": [
        134.2793731689453,
        191.44618225097656,
        134.72348022460938
      ],
      "min": [
        -134.2793731689453,
        -1.8880142518500505e-29,
        -134.72348022460938
      ],
      "type": "VEC3"
    },
    {
      "bufferView": 2,
      "byteOffset": 187668,
      "componentType": 5126,
      "count": 15639,
      "max": [
        0.99984210729599,
        1.0,
        0.9999940991401672
      ],
      "min": [
        -0.9998160600662231,
        -1.0,
        -0.999762237071991
      ],
      "type": "VEC3"
    },
    {
      "bufferView": 3,
      "componentType": 5126,
      "count": 15639,
      "max": [
        1.0,
        0.9700337052345276,
        0.9998194575309753,
        1.0
      ],
      "min": [
        -0.9999998211860657,
        -0.9967550039291382,
        -0.9998698234558105,
        -1.0
      ],
      "type": "VEC4"
    },
    {
      "bufferView": 1,
      "componentType": 5126,
      "count": 15639,
      "max": [
        0.992641806602478,
        0.9484076499938965
      ],
      "min": [
        0.06153872236609459,
        0.043381571769714355
      ],
      "type": "VEC2"
    },
    {
      "bufferView": 1,
      "byteOffset": 125112,
      "componentType": 5126,
      "count": 15639,
      "max": [
        0.992641806602478,
        0.9484076499938965
      ],
      "min": [
        0.06153872236609459,
        0.043381571769714355
      ],
      "type": "VEC2"
    },
    {
      "bufferView": 1,
      "byteOffset": 250224,
      "componentType": 5126,
      "count": 15639,
      "max": [
        0.992641806602478,
        0.9484076499938965
      ],
      "min": [
        0.06153872236609459,
        0.043381571769714355
      ],
      "type": "VEC2"
    },
    {
      "bufferView": 1,
      "byteOffset": 375336,
      "componentType": 5126,
      "count": 15639,
      "max": [
        0.992641806602478,
        0.9484076499938965
      ],
      "min": [
        0.06153872236609459,
        0.043381571769714355
      ],
      "type": "VEC2"
    },
    {
      "bufferView": 0,
      "componentType": 5125,
      "count": 82302,
      "type": "SCALAR"
    }
  ],
  "asset": {
    "extras": {
      "author": "monsieurmo (https://sketchfab.com/monsieurmo)",
      "license": "CC-BY-4.0 (http://creativecommons.org/licenses/by/4.0/)",
      "source": "https://sketchfab.com/3d-models/halloween-pumpkin-4484260f38114ad0b78da570afc5116c",
      "title": "Halloween pumpkin"
    },
    "generator": "Sketchfab-12.68.0",
    "version": "2.0"
  },
  "bufferViews": [
    {
      "buffer": 0,
      "byteLength": 329208,
      "name": "floatBufferViews",
      "target": 34963
    },
    {
      "buffer": 0,
      "byteLength": 500448,
      "byteOffset": 329208,
      "byteStride": 8,
      "name": "floatBufferViews",
      "target": 34962
    },
    {
      "buffer": 0,
      "byteLength": 375336,
      "byteOffset": 829656,
      "byteStride": 12,
      "name": "floatBufferViews",
      "target": 34962
    },
    {
      "buffer": 0,
      "byteLength": 250224,
      "byteOffset": 1204992,
      "byteStride": 16,
      "name": "floatBufferViews",
      "target": 34962
    }
  ],
  "buffers": [
    {
      "byteLength": 1455216,
      "uri": "scene.bin"
    }
  ],
  "images": [
    {
      "uri": "textures/Mat.1_baseColor.jpeg"
    },
    {
      "uri": "textures/Mat.1_metallicRoughness.png"
    },
    {
      "uri": "textures/Mat.1_emissive.jpeg"
    },
    {
      "uri": "textures/Mat.1_normal.png"
    }
  ],
  "materials": [
    {
      "doubleSided": true,
      "emissiveFactor": [
        1.0,
        1.0,
        1.0
      ],
      "emissiveTexture": {
        "index": 2
      },
      "name": "Mat.1",
      "normalTexture": {
        "index": 3
      },
      "occlusionTexture": {
        "index": 1,
        "strength": 0.7283915142680324
      },
      "pbrMetallicRoughness": {
        "baseColorTexture": {
          "index": 0
        },
        "metallicFactor": 0.0,
        "metallicRoughnessTexture": {
          "index": 1
        },
        "roughnessFactor": 0.6004845375238463
      }
    }
  ],
  "meshes": [
    {
      "name": "Pumpkin_Mat.1_0",
      "primitives": [
        {
          "attributes": {
            "NORMAL": 1,
            "POSITION": 0,
            "TANGENT": 2,
            "TEXCOORD_0": 3,
            "TEXCOORD_1": 4,
            "TEXCOORD_2": 5,
            "TEXCOORD_3": 6
          },
          "indices": 7,
          "material": 0,
          "mode": 4
        }
      ]
    }
  ],
  "nodes": [
    {
      "children": [
        1
      ],
      "matrix": [
        1.0,
        -1.608122622957729e-16,
        -1.6081226229577294e-16,
        0.0,
        -1.6081226229577292e-16,
        2.2204460492503136e-16,
        -1.0,
        0.0,
        1.6081226229577292e-16,
        1.0,
        2.220446049250313e-16,
        0.0,
        -4.38152118753532e-14,
        -5.684341886080803e-14,
        5.684347307091663e-14,
        1.0
      ],
      "name": "Sketchfab_model"
    },
    {
      "children": [
        2
      ],
      "matrix": [
        1.0,
        0.0,
        0.0,
        0.0,
        0.0,
        0.0,
        1.0,
        0.0,
        0.0,
        -1.0,
        0.0,
        0.0,
        0.0,
        0.0,
        0.0,
        1.0
      ],
      "name": "8fa5a9c4e5ed408a84db98856280a0ec.fbx"
    },
    {
      "children": [
        3
      ],
      "name": "RootNode"
    },
    {
      "children": [
        4
      ],
      "matrix": [
        1.0,
        0.0,
        0.0,
        0.0,
        0.0,
        1.0,
        -8.230138310147294e-16,
        0.0,
        0.0,
        8.230138310147294e-16,
        1.0,
        0.0,
        0.0,
        0.0,
        0.0,
        1.0
      ],
      "name": "Pumpkin"
    },
    {
      "mesh": 0,
      "name": "Pumpkin_Mat.1_0"
    }
  ],
  "samplers": [
    {
      "magFilter": 9729,
      "minFilter": 9987,
      "wrapS": 10497,
      "wrapT": 10497
    },
    {
      "magFilter": 9728,
      "minFilter": 9986,
      "wrapS": 10497,
      "wrapT": 10497
    }
  ],
  "scene": 0,
  "scenes": [
    {
      "name": "Sketchfab_Scene",
      "nodes": [
        0
      ]
    }
  ],
  "textures": [
    {
      "sampler": 0,
      "source": 0
    },
    {
      "sampler": 0,
      "source": 1
    },
    {
      "sampler": 0,
      "source": 2
    },
    {
      "sampler": 1,
      "source": 3
    }
  ]
}
